# xmcd CD database file
#
# Track frame offsets:
#	150
#	21322
#	49960
#	78787
#	99510
#	131307
#	137747
#	167330
#	194462
#	209560
#
# Disc length: 3481 seconds
#
# Revision: 0
# Processed by: cddbd v1.5.2PL0 Copyright (c) Steve Scherf et al.
# Submitted via: CDex 1.50
#
DISCID=830d970a
DTITLE=Squat - Tales From The Side Of The Road
DYEAR=1998
DGENRE=Jazz
TTITLE0=F'n Ridiculous
TTITLE1=Trance
TTITLE2=Sea Song
TTITLE3=Walking The Monster Back Home
TTITLE4=Duck Walk
TTITLE5=Jacob
TTITLE6=Ol '56
TTITLE7=Always A Little Behind
TTITLE8=Insomniac
TTITLE9=Tasty Morsel
EXTD=YEAR: 1998
EXTT0=
EXTT1=
EXTT2=
EXTT3=
EXTT4=
EXTT5=
EXTT6=
EXTT7=
EXTT8=
EXTT9=
PLAYORDER=
